<svg width="157" height="54" viewBox="0 0 157 54" fill="none" xmlns="http://www.w3.org/2000/svg">
<g clip-path="url(#clip0)">
<g opacity="0.88">
<path opacity="0.88" d="M62.5898 43.51V14H72.6498C75.9898 14 78.4998 14.67 80.1898 16C81.0464 16.7125 81.7222 17.6176 82.1619 18.6413C82.6016 19.665 82.7928 20.7782 82.7198 21.89C82.7383 23.2144 82.3044 24.5055 81.4898 25.55C80.6129 26.6478 79.4603 27.4932 78.1498 28C79.716 28.3695 81.1069 29.2673 82.0886 30.5423C83.0704 31.8172 83.5828 33.3915 83.5398 35C83.5984 36.1771 83.3875 37.352 82.923 38.4351C82.4586 39.5182 81.7529 40.481 80.8598 41.25C79.0665 42.77 76.5332 43.53 73.2598 43.53L62.5898 43.51ZM66.5898 26.56H72.7298C74.2581 26.6373 75.7662 26.1852 76.9998 25.28C77.5197 24.8651 77.9352 24.3343 78.213 23.73C78.4908 23.1257 78.6233 22.4647 78.5998 21.8C78.6576 21.1318 78.5522 20.4597 78.2926 19.8413C78.0331 19.2229 77.6272 18.6768 77.1098 18.25C75.766 17.4109 74.1897 17.0221 72.6098 17.14H66.6098L66.5898 26.56ZM66.5898 29.68V40.32H73.2998C74.9119 40.4109 76.5017 39.9094 77.7698 38.91C78.3294 38.4289 78.7722 37.8269 79.065 37.1496C79.3578 36.4722 79.4928 35.7372 79.4598 35C79.4598 31.44 77.4598 29.66 73.4598 29.66L66.5898 29.68Z" fill="#231815"/>
<path opacity="0.88" d="M98.4304 43.9102C97.0369 43.9668 95.6465 43.7378 94.3447 43.2374C93.0429 42.7369 91.8572 41.9756 90.8604 41.0002C89.8674 39.9576 89.0966 38.7243 88.5947 37.3749C88.0927 36.0255 87.8701 34.5882 87.9404 33.1502V32.4602C87.9037 30.4411 88.3494 28.4424 89.2404 26.6302C90.0594 24.9851 91.3197 23.6002 92.8804 22.6302C94.3943 21.6743 96.15 21.1712 97.9404 21.1802C99.2339 21.1065 100.528 21.3212 101.728 21.809C102.928 22.2967 104.005 23.0451 104.88 24.0002C106.534 25.8802 107.357 28.5735 107.35 32.0802V33.6002H91.8504C91.8261 35.5407 92.5411 37.4177 93.8504 38.8502C94.4648 39.5052 95.2113 40.0222 96.0405 40.367C96.8697 40.7118 97.7627 40.8765 98.6604 40.8502C99.8819 40.8879 101.092 40.6052 102.17 40.0302C103.142 39.4838 103.998 38.7536 104.69 37.8802L107.08 39.6702C105.147 42.5035 102.264 43.9168 98.4304 43.9102ZM97.9404 24.2202C97.1945 24.2009 96.453 24.3387 95.7638 24.6247C95.0747 24.9107 94.4535 25.3385 93.9404 25.8802C92.7774 27.1621 92.0738 28.7944 91.9404 30.5202H103.4V30.2302C103.397 28.6109 102.827 27.0438 101.79 25.8002C101.3 25.2758 100.702 24.8632 100.038 24.5906C99.3732 24.3179 98.658 24.1916 97.9404 24.2202Z" fill="#231815"/>
<path opacity="0.88" d="M141.109 29.2907V33.5307H152.999V36.2707H147.109V43.2707H153.349V46.0007H125.299V43.2607H131.529V36.2607H125.639V33.5307H137.509V29.2907H121.699V26.5507H156.879V29.2907H141.109ZM153.589 23.6807C147.589 22.8107 141.799 19.9007 139.329 15.6807C136.909 19.8807 131.059 22.7907 125.039 23.6807L123.739 21.0007C130.739 20.0907 137.509 16.1007 137.509 11.3207V9.7207H141.149V11.3407C141.149 15.9907 147.999 20.1507 154.879 21.0207L153.589 23.6807ZM143.589 36.2707H134.999V43.2707H143.579L143.589 36.2707Z" fill="#231815"/>
</g>
<path opacity="0.88" d="M34.89 19.0004L30.51 16.4004L30.22 16.5704L28 17.8604L33.88 21.2404L27.66 24.8004L25.2 26.2604L18.72 30.0004L12.24 26.2704L9.75 24.8004L3.56 21.2404L9.46 17.8604L7.23 16.5704L6.94 16.4004L2.5 19.0004L0 20.4304V31.4904L2.5 32.9304L18.7 42.2704L34.91 32.9304L37.41 31.4904V20.4304L34.89 19.0004ZM34.89 30.0604L18.7 39.3904L2.5 30.0004V23.5104L7.23 26.2604L9.75 27.7204L18.75 32.8504L27.69 27.7204L30.25 26.2604L34.92 23.5104L34.89 30.0604Z" fill="#231815"/>
<path d="M34.89 9.34L18.72 0L2.5 9.34L0 10.8V12.44L2.5 13.9L6.94 16.4L7.23 16.57L9.46 17.86L9.75 18.03L18.75 23.22L27.66 18L27.95 17.83L30.22 16.54L30.51 16.37L34.89 13.87L37.41 12.41V10.8L34.89 9.34ZM28 15L27.65 15.18L25.43 16.4L25.2 16.57L18.72 20.36L12.24 16.57L12 16.4L9.75 15.17L9.4 15L3.56 11.61L18.72 2.92L33.83 11.61L28 15Z" fill="#4665A7"/>
<path d="M33.8305 11.6099L28.0105 14.9899L27.6605 15.1699L25.4305 16.3999L25.2005 16.5699L18.7205 20.3599L12.2405 16.5699L11.9605 16.3999L9.75055 15.1699L9.40055 14.9899L3.56055 11.6099L18.7205 2.91992L33.8305 11.6099Z" stroke="#4665A7" stroke-miterlimit="10"/>
<path opacity="0.88" d="M18.7095 53.9298L2.50953 44.5898L0.0195312 43.1398V41.4998L2.50953 40.0498L7.21953 37.3398L9.72953 38.7798L3.57953 42.3198L18.7095 51.0398L33.8295 42.3198L27.6795 38.7798L30.1995 37.3398L34.9095 40.0498L37.3995 41.4998V43.1398L34.9095 44.5898L18.7095 53.9298Z" fill="#231815"/>
<path opacity="0.88" d="M115.241 27.8992C116.124 27.8992 116.841 27.1829 116.841 26.2992C116.841 25.4156 116.124 24.6992 115.241 24.6992C114.357 24.6992 113.641 25.4156 113.641 26.2992C113.641 27.1829 114.357 27.8992 115.241 27.8992Z" fill="#231815"/>
<path opacity="0.88" d="M115.241 38.1492C116.124 38.1492 116.841 37.4329 116.841 36.5492C116.841 35.6656 116.124 34.9492 115.241 34.9492C114.357 34.9492 113.641 35.6656 113.641 36.5492C113.641 37.4329 114.357 38.1492 115.241 38.1492Z" fill="#231815"/>
</g>
<defs>
<clipPath id="clip0">
<rect width="156.88" height="53.93" fill="white"/>
</clipPath>
</defs>
</svg>
